<svg width="277" height="58" viewBox="0 0 277 58" fill="none" xmlns="http://www.w3.org/2000/svg">
<path d="M41.76 0.119999L26.4 42H16.2L0.84 0.119999H9.84L21.36 33.42L32.82 0.119999H41.76ZM77.6963 24.66C77.6963 25.86 77.6163 26.94 77.4563 27.9H53.1563C53.3563 30.3 54.1963 32.18 55.6763 33.54C57.1563 34.9 58.9763 35.58 61.1363 35.58C64.2563 35.58 66.4763 34.24 67.7963 31.56H76.8563C75.8963 34.76 74.0563 37.4 71.3363 39.48C68.6163 41.52 65.2763 42.54 61.3163 42.54C58.1163 42.54 55.2363 41.84 52.6763 40.44C50.1563 39 48.1763 36.98 46.7363 34.38C45.3363 31.78 44.6362 28.78 44.6362 25.38C44.6362 21.94 45.3363 18.92 46.7363 16.32C48.1363 13.72 50.0963 11.72 52.6163 10.32C55.1363 8.92 58.0363 8.22 61.3163 8.22C64.4763 8.22 67.2963 8.9 69.7763 10.26C72.2963 11.62 74.2363 13.56 75.5963 16.08C76.9963 18.56 77.6963 21.42 77.6963 24.66ZM68.9963 22.26C68.9563 20.1 68.1763 18.38 66.6563 17.1C65.1363 15.78 63.2763 15.12 61.0763 15.12C58.9963 15.12 57.2363 15.76 55.7963 17.04C54.3963 18.28 53.5363 20.02 53.2163 22.26H68.9963ZM96.5475 42.54C93.8275 42.54 91.3875 42.06 89.2275 41.1C87.0675 40.1 85.3475 38.76 84.0675 37.08C82.8275 35.4 82.1475 33.54 82.0275 31.5H90.4875C90.6475 32.78 91.2675 33.84 92.3475 34.68C93.4675 35.52 94.8475 35.94 96.4875 35.94C98.0875 35.94 99.3275 35.62 100.208 34.98C101.128 34.34 101.588 33.52 101.588 32.52C101.588 31.44 101.028 30.64 99.9075 30.12C98.8275 29.56 97.0875 28.96 94.6875 28.32C92.2075 27.72 90.1675 27.1 88.5675 26.46C87.0075 25.82 85.6475 24.84 84.4875 23.52C83.3675 22.2 82.8075 20.42 82.8075 18.18C82.8075 16.34 83.3275 14.66 84.3675 13.14C85.4475 11.62 86.9675 10.42 88.9275 9.54C90.9275 8.66 93.2675 8.22 95.9475 8.22C99.9075 8.22 103.068 9.22 105.428 11.22C107.788 13.18 109.088 15.84 109.328 19.2H101.288C101.168 17.88 100.608 16.84 99.6075 16.08C98.6475 15.28 97.3475 14.88 95.7075 14.88C94.1875 14.88 93.0075 15.16 92.1675 15.72C91.3675 16.28 90.9675 17.06 90.9675 18.06C90.9675 19.18 91.5275 20.04 92.6475 20.64C93.7675 21.2 95.5075 21.78 97.8675 22.38C100.268 22.98 102.248 23.6 103.808 24.24C105.368 24.88 106.708 25.88 107.828 27.24C108.988 28.56 109.588 30.32 109.628 32.52C109.628 34.44 109.088 36.16 108.008 37.68C106.968 39.2 105.448 40.4 103.448 41.28C101.488 42.12 99.1875 42.54 96.5475 42.54ZM126.303 15.66V31.74C126.303 32.86 126.563 33.68 127.083 34.2C127.643 34.68 128.563 34.92 129.843 34.92H133.743V42H128.463C121.383 42 117.843 38.56 117.843 31.68V15.66H113.883V8.76H117.843V0.539997H126.303V8.76H133.743V15.66H126.303Z" fill="white"/>
<path d="M148.185 6.9V17.4H162.285V24.06H148.185V35.16H164.085V42H139.785V0.0599964H164.085V6.9H148.185ZM169.558 25.26C169.558 21.9 170.218 18.92 171.538 16.32C172.898 13.72 174.718 11.72 176.998 10.32C179.318 8.92 181.898 8.22 184.738 8.22C187.218 8.22 189.378 8.72 191.218 9.72C193.098 10.72 194.598 11.98 195.718 13.5V8.76H204.178V42H195.718V37.14C194.638 38.7 193.138 40 191.218 41.04C189.338 42.04 187.158 42.54 184.678 42.54C181.878 42.54 179.318 41.82 176.998 40.38C174.718 38.94 172.898 36.92 171.538 34.32C170.218 31.68 169.558 28.66 169.558 25.26ZM195.718 25.38C195.718 23.34 195.318 21.6 194.518 20.16C193.718 18.68 192.638 17.56 191.278 16.8C189.918 16 188.458 15.6 186.898 15.6C185.338 15.6 183.898 15.98 182.578 16.74C181.258 17.5 180.178 18.62 179.338 20.1C178.538 21.54 178.138 23.26 178.138 25.26C178.138 27.26 178.538 29.02 179.338 30.54C180.178 32.02 181.258 33.16 182.578 33.96C183.938 34.76 185.378 35.16 186.898 35.16C188.458 35.16 189.918 34.78 191.278 34.02C192.638 33.22 193.718 32.1 194.518 30.66C195.318 29.18 195.718 27.42 195.718 25.38ZM225.102 42.54C222.382 42.54 219.942 42.06 217.782 41.1C215.622 40.1 213.902 38.76 212.622 37.08C211.382 35.4 210.702 33.54 210.582 31.5H219.042C219.202 32.78 219.822 33.84 220.902 34.68C222.022 35.52 223.402 35.94 225.042 35.94C226.642 35.94 227.882 35.62 228.762 34.98C229.682 34.34 230.142 33.52 230.142 32.52C230.142 31.44 229.582 30.64 228.462 30.12C227.382 29.56 225.642 28.96 223.242 28.32C220.762 27.72 218.722 27.1 217.122 26.46C215.562 25.82 214.202 24.84 213.042 23.52C211.922 22.2 211.362 20.42 211.362 18.18C211.362 16.34 211.882 14.66 212.922 13.14C214.002 11.62 215.522 10.42 217.482 9.54C219.482 8.66 221.822 8.22 224.502 8.22C228.462 8.22 231.622 9.22 233.982 11.22C236.342 13.18 237.642 15.84 237.882 19.2H229.842C229.722 17.88 229.162 16.84 228.162 16.08C227.202 15.28 225.902 14.88 224.262 14.88C222.742 14.88 221.562 15.16 220.722 15.72C219.922 16.28 219.522 17.06 219.522 18.06C219.522 19.18 220.082 20.04 221.202 20.64C222.322 21.2 224.062 21.78 226.422 22.38C228.822 22.98 230.802 23.6 232.362 24.24C233.922 24.88 235.262 25.88 236.382 27.24C237.542 28.56 238.142 30.32 238.182 32.52C238.182 34.44 237.642 36.16 236.562 37.68C235.522 39.2 234.002 40.4 232.002 41.28C230.042 42.12 227.742 42.54 225.102 42.54ZM276.878 8.76L256.298 57.72H247.358L254.558 41.16L241.238 8.76H250.658L259.238 31.98L267.938 8.76H276.878Z" fill="#00FFB3"/>
</svg>
